HIERARCHY
ROOT Hips
{
	OFFSET	0.00	0.00	0.00
	CHANNELS 6 Xposition Yposition Zposition Zrotation Xrotation Yrotation
	JOINT LeftUpLeg
	{
		OFFSET	 0.126116	-0.065224	 0.014019
		CHANNELS 3 Zrotation Xrotation Yrotation
		JOINT LeftLeg
		{
			OFFSET	 0.000000	 0.569914	 0.000000
			CHANNELS 3 Zrotation Xrotation Yrotation
			JOINT LeftFoot
			{
				OFFSET	 0.000000	 0.544423	 0.000000
				CHANNELS 3 Zrotation Xrotation Yrotation
				JOINT LeftToeBase
				{
					OFFSET	 0.000000	 0.207117	 0.000000
					CHANNELS 3 Zrotation Xrotation Yrotation
					End Site
					{
						OFFSET	 0.000000	 0.207117	 0.000000
					}
				}
			}
		}
	}
	JOINT RightUpLeg
	{
		OFFSET	-0.124023	-0.065224	 0.008373
		CHANNELS 3 Zrotation Xrotation Yrotation
		JOINT RightLeg
		{
			OFFSET	 0.000000	 0.570047	 0.000000
			CHANNELS 3 Zrotation Xrotation Yrotation
			JOINT RightFoot
			{
				OFFSET	 0.000000	 0.544354	 0.000000
				CHANNELS 3 Zrotation Xrotation Yrotation
				JOINT RightToeBase
				{
					OFFSET	 0.000000	 0.207540	 0.000000
					CHANNELS 3 Zrotation Xrotation Yrotation
					End Site
					{
						OFFSET	 0.000000	 0.207540	 0.000000
					}
				}
			}
		}
	}
	JOINT Spine
	{
		OFFSET	 0.000184	 0.117403	 0.007763
		CHANNELS 3 Zrotation Xrotation Yrotation
		JOINT Spine1
		{
			OFFSET	 0.000000	 0.137269	 0.000000
			CHANNELS 3 Zrotation Xrotation Yrotation
			JOINT Spine2
			{
				OFFSET	 0.000000	 0.156879	 0.000000
				CHANNELS 3 Zrotation Xrotation Yrotation
				JOINT LeftShoulder
				{
					OFFSET	 0.080501	 0.160143	 0.002496
					CHANNELS 3 Zrotation Xrotation Yrotation
					JOINT LeftArm
					{
						OFFSET	 0.000000	 0.164363	 0.000000
						CHANNELS 3 Zrotation Xrotation Yrotation
						JOINT LeftForeArm
						{
							OFFSET	 0.000000	 0.364576	 0.000000
							CHANNELS 3 Zrotation Xrotation Yrotation
							JOINT LeftHand
							{
								OFFSET	 0.000000	 0.360812	 0.000000
								CHANNELS 3 Zrotation Xrotation Yrotation
								JOINT LeftHandIndex1
								{
									OFFSET	 0.000000	 0.086006	 0.000000
									CHANNELS 3 Zrotation Xrotation Yrotation
									JOINT LeftHandIndex2
									{
										OFFSET	 0.000000	 0.047237	 0.000000
										CHANNELS 3 Zrotation Xrotation Yrotation
										JOINT LeftHandIndex3
										{
											OFFSET	-0.004284	 0.038165	 0.000551
											CHANNELS 3 Zrotation Xrotation Yrotation
											End Site
											{
												OFFSET	-0.004284	 0.038165	 0.000551
											}
										}
									}
								}
							}
						}
					}
				}
				JOINT Neck
				{
					OFFSET	 0.000000	 0.176489	 0.000000
					CHANNELS 3 Zrotation Xrotation Yrotation
					JOINT Head
					{
						OFFSET	 0.000000	 0.077941	 0.001747
						CHANNELS 3 Zrotation Xrotation Yrotation
						End Site
						{
							OFFSET	 0.000000	 0.077941	 0.001747
						}
					}
				}
				JOINT RightShoulder
				{
					OFFSET	-0.080363	 0.159706	-0.000306
					CHANNELS 3 Zrotation Xrotation Yrotation
					JOINT RightArm
					{
						OFFSET	 0.000000	 0.164196	 0.000000
						CHANNELS 3 Zrotation Xrotation Yrotation
						JOINT RightForeArm
						{
							OFFSET	 0.000000	 0.365611	 0.000000
							CHANNELS 3 Zrotation Xrotation Yrotation
							JOINT RightHand
							{
								OFFSET	 0.000000	 0.360648	 0.000000
								CHANNELS 3 Zrotation Xrotation Yrotation
								JOINT RightHandIndex1
								{
									OFFSET	 0.000000	 0.069977	 0.000000
									CHANNELS 3 Zrotation Xrotation Yrotation
									JOINT RightHandIndex2
									{
										OFFSET	 0.000000	 0.052305	 0.000000
										CHANNELS 3 Zrotation Xrotation Yrotation
										JOINT RightHandIndex3
										{
											OFFSET	 0.009002	 0.042196	 0.000782
											CHANNELS 3 Zrotation Xrotation Yrotation
											End Site
											{
												OFFSET	 0.009002	 0.042196	 0.000782
											}
										}
									}
								}
							}
						}
					}
				}
			}
		}
	}
}
MOTION
Frames:    13
Frame Time: 0.03333334
-0.004317	 1.268993	-0.018641	 0.880882	 1.162418	-179.897500	-177.727800	 6.195544	-13.265950	 3.661651	-17.925790	 5.825143	 2.525704	 71.240950	-1.658184	 1.331492	 28.938720	-2.729976	 178.430000	 5.658182	 19.028880	-5.085499	-16.300870	-5.068131	 6.052592	 70.574220	-5.828876	-1.318912	 28.760140	 2.171038	-0.780397	 2.358790	 1.171919	-1.099090	 1.569089	 0.045455	-0.899691	-1.083422	-3.043785	-113.435300	 5.257002	 92.889320	 23.920740	 54.287830	 23.917700	 4.987283	-0.257724	-0.072655	-0.622378	-6.327739	-10.372260	-6.580301	 5.266122	 0.000000	 0.000000	 0.000000	 0.000000	 0.000000	 0.000000	 0.000000	 4.492478	-0.508157	 0.059899	 2.028891	 2.249918	 1.590052	 114.235100	-4.551897	-88.313790	-52.922720	 26.220860	 48.445960	-73.309840	-2.158230	-1.547609	-56.113400	-60.760350	-38.258610	-0.359242	 10.568130	 0.744421	 11.977600	 9.303259	-2.093036	-8.358999	 3.143178	 0.104742
-0.002767	 1.269292	-0.015212	 0.745154	 1.159240	 178.947100	-177.607000	 5.886105	-14.276340	 3.550903	-17.417540	 4.469469	-1.419065	 70.964930	 2.463305	 1.331492	 28.938720	-2.729976	 178.594100	 5.994716	 17.829720	-5.125769	-16.422690	-6.205665	 2.869734	 70.610660	-2.451176	-1.314700	 28.701610	 2.271754	-0.778362	 2.456418	 0.936345	-0.868672	 1.527413	-0.096401	-0.876489	-0.843227	-2.663221	-113.435100	 5.331366	 92.918380	 14.471000	 53.830060	 31.306850	 4.844972	-0.250357	-0.073239	 0.049719	-5.781085	-11.152330	-6.580301	 5.266122	 0.000000	 0.000000	 0.000000	 0.000000	 0.000000	 0.000000	 0.000000	 4.722469	-0.507307	 0.166996	 1.761212	 2.353127	 1.955580	 114.259000	-4.705326	-88.196750	-57.371990	 8.459729	 53.723670	-75.269310	-2.179099	-1.621741	-25.186230	-33.679300	-19.820020	-0.359398	 10.572380	 0.744459	 11.977640	 9.307447	-2.093935	-8.359037	 3.145303	 0.104585
-0.000290	 1.269449	-0.011582	 0.602084	 1.155038	 177.832300	-177.485300	 5.621488	-15.250820	 3.450373	-16.953640	 3.097955	-5.308949	 70.594830	 6.523470	 1.331492	 28.938720	-2.729976	 178.778100	 6.372249	 16.669690	-5.181039	-16.589650	-7.294588	-0.213901	 70.590740	 0.788278	-1.310518	 28.645050	 2.369040	-0.788301	 2.545489	 0.916059	-0.827519	 1.591037	-0.025507	-0.771775	-0.662886	-2.295977	-113.435000	 5.403246	 92.946480	 7.547889	 53.626470	 36.647870	 4.703502	-0.243125	-0.073845	-0.574739	-5.236166	-11.521760	-6.580301	 5.266122	 0.000000	 0.000000	 0.000000	 0.000000	 0.000000	 0.000000	 0.000000	 4.944736	-0.506077	 0.270495	 1.501694	 2.451313	 2.309416	 114.282400	-4.853565	-88.083560	-63.076390	-5.259633	 56.116940	-74.430340	-2.170484	-1.589884	-16.258250	-7.449194	-17.693280	-0.359550	 10.576490	 0.744496	 11.977690	 9.311496	-2.094805	-8.359075	 3.147357	 0.104434
 0.003719	 1.269374	-0.008449	 0.511800	 1.240561	 178.042900	-177.399700	 5.603209	-15.016940	 3.413305	-16.782030	 3.035208	-5.623911	 70.350730	 6.690202	 1.331492	 28.938720	-2.729976	 178.866600	 6.486575	 16.828450	-5.208560	-16.672660	-7.524627	-0.986549	 70.627940	 1.503614	-1.305696	 28.581730	 2.484233	-0.783446	 2.659198	 1.079583	-0.790589	 1.699921	 0.068338	-0.855073	-0.434966	-2.431647	-113.436300	 5.450827	 92.983490	 5.802506	 54.092460	 37.132990	 4.663741	-0.241102	-0.074065	 1.071832	-5.393377	-10.886090	-6.580301	 5.266122	 0.000000	 0.000000	 0.000000	 0.000000	 0.000000	 0.000000	 0.000000	 5.099606	-0.446961	 0.119146	 2.452151	 2.218155	 1.937077	 114.281400	-4.842714	-88.081100	-62.271480	-1.724396	 44.892350	-91.649490	-2.252156	-2.259377	-8.548299	 2.067958	-16.525830	-0.416450	 12.203000	 0.755744	 12.003480	 10.903100	-2.438158	-8.375878	 4.025259	 0.048294
 0.008889	 1.269117	-0.005435	 0.425023	 1.344607	 178.585300	-177.317400	 5.687000	-14.485600	 3.402759	-16.733120	 3.322879	-5.056619	 70.161660	 5.878052	 1.331492	 28.938720	-2.729976	 178.924700	 6.585568	 17.317550	-5.243383	-16.777580	-7.529647	-1.163544	 70.682690	 1.558750	-1.300824	 28.519620	 2.598599	-0.788923	 2.777482	 1.531091	-0.933113	 1.856589	 0.413977	-0.905523	-0.217842	-2.690761	-113.437900	 5.489965	 93.021060	 7.188944	 55.341260	 34.958210	 4.683900	-0.242090	-0.073952	 2.099360	-5.614829	-9.516300	-6.580301	 5.266122	 0.000000	 0.000000	 0.000000	 0.000000	 0.000000	 0.000000	 0.000000	 5.230304	-0.376304	-0.090411	 3.663028	 1.902853	 1.403273	 114.274300	-4.791744	-88.107030	-65.348110	 10.105930	 21.487500	-108.501300	-2.136727	-2.909304	-0.133402	 0.033619	-27.003490	-0.486174	 14.168990	 0.771662	 12.047900	 12.826670	-2.856857	-8.395061	 5.086213	-0.019292
 0.013083	 1.268809	-0.002882	 0.342985	 1.435565	 179.063900	-177.272200	 5.824077	-14.019620	 3.403593	-16.736950	 3.580337	-4.528426	 69.983820	 5.159414	 1.331492	 28.938720	-2.729976	 178.958800	 6.708034	 17.748570	-5.295960	-16.935790	-7.538903	-1.295687	 70.762960	 1.599606	-1.296408	 28.464800	 2.699506	-0.798937	 2.884090	 1.961198	-1.061173	 1.993090	 0.750565	-0.951505	-0.018519	-2.920305	-113.439300	 5.524519	 93.054210	 9.880456	 56.383960	 31.781350	 4.722363	-0.244097	-0.073794	 2.356048	-5.302235	-8.275541	-6.580301	 5.266122	 0.000000	 0.000000	 0.000000	 0.000000	 0.000000	 0.000000	 0.000000	 5.345891	-0.314330	-0.275529	 4.727537	 1.616918	 0.938518	 114.268000	-4.746749	-88.129890	-68.223210	 20.728340	-1.068206	-107.208400	-2.152306	-2.860989	-3.113616	-3.675673	-37.880120	-0.548721	 15.904210	 0.787899	 12.099470	 14.524160	-3.230535	-8.410978	 6.022752	-0.078756
 0.016298	 1.268464	-0.000210	 0.194760	 1.492262	 179.646100	-177.357500	 6.066637	-13.394500	 3.395797	-16.700840	 4.074667	-3.281540	 69.835390	 3.737121	 1.331492	 28.938720	-2.729976	 178.878600	 6.918199	 18.429620	-5.391850	-17.223580	-7.429480	-1.097240	 70.913010	 1.263211	-1.293877	 28.434810	 2.773391	-0.789982	 2.967935	 2.236717	-1.153087	 2.219439	 0.950161	-1.048532	 0.058007	-3.195086	-113.440300	 5.446117	 93.036060	 13.459470	 56.852860	 28.648020	 4.769828	-0.246546	-0.073560	 2.596409	-5.268222	-7.420185	-6.580301	 5.266122	 0.000000	 0.000000	 0.000000	 0.000000	 0.000000	 0.000000	 0.000000	 5.214621	-0.269346	-0.417677	 5.110609	 1.342015	 0.539885	 114.256900	-4.670011	-88.176240	-61.591460	 32.943430	-15.461520	-100.239500	-2.217234	-2.594975	-2.484099	-6.572134	-38.558680	-0.629790	 18.109390	 0.811616	 12.182310	 16.680870	-3.712219	-8.428607	 7.131922	-0.148986
 0.018586	 1.268054	 0.002243	 0.011992	 1.522433	-179.759100	-177.534100	 6.403666	-12.730280	 3.388643	-16.667660	 4.667672	-1.710141	 69.674520	 2.031147	 1.331492	 28.938720	-2.729976	 178.731800	 7.188100	 19.198020	-5.520611	-17.608580	-7.268658	-0.731709	 71.113770	 0.745491	-1.292654	 28.421360	 2.825937	-0.780338	 3.028859	 2.499542	-1.233888	 2.524355	 1.151793	-1.161697	 0.029661	-3.472042	-113.441000	 5.309945	 92.990240	 19.077260	 56.789780	 24.261180	 4.844825	-0.250447	-0.073252	 1.984119	-4.832479	-6.721574	-6.580301	 5.266122	 0.000000	 0.000000	 0.000000	 0.000000	 0.000000	 0.000000	 0.000000	 4.953747	-0.237117	-0.523697	 5.075505	 1.098258	 0.208650	 114.243900	-4.581482	-88.232110	-43.975490	 41.879120	-28.046730	-87.476920	-2.250851	-2.095333	-8.130042	-8.096932	-31.518580	-0.716347	 20.404060	 0.840163	 12.289920	 18.924360	-4.223180	-8.445028	 8.249279	-0.219571
 0.020109	 1.267630	 0.004546	-0.162165	 1.555661	-179.180500	-177.736500	 6.719026	-12.082240	 3.384697	-16.649300	 5.249754	-0.155207	 69.525680	 0.370712	 1.331492	 28.938720	-2.729976	 178.550400	 7.453776	 19.945790	-5.660700	-18.025500	-7.118662	-0.310128	 71.334720	 0.217952	-1.291448	 28.408260	 2.877121	-0.766904	 3.091512	 2.573602	-1.268345	 2.743339	 1.166446	-1.289642	 0.036428	-3.740267	-113.441800	 5.177283	 92.945630	 23.734240	 56.419300	 20.684010	 4.899807	-0.253248	-0.073000	 1.749225	-4.434442	-6.426086	-6.580301	 5.266122	 0.000000	 0.000000	 0.000000	 0.000000	 0.000000	 0.000000	 0.000000	 4.699662	-0.205256	-0.626839	 5.039424	 0.860643	-0.114137	 114.231400	-4.495217	-88.286520	-33.533660	 46.403940	-32.321070	-66.802190	-2.071159	-1.307185	-17.190650	-3.948902	-18.470740	-0.803183	 22.639460	 0.872022	 12.416850	 21.108950	-4.732345	-8.459731	 9.337825	-0.288227
 0.021263	 1.267238	 0.006706	-0.257959	 1.646830	-179.084700	-177.796700	 6.837641	-11.943750	 3.392491	-16.685510	 5.479585	 0.410306	 69.447710	-0.259796	 1.331492	 28.938720	-2.729976	 178.480300	 7.670713	 20.128100	-5.783141	-18.388170	-7.329235	-0.953168	 71.506740	 0.821638	-1.291037	 28.404840	 2.914077	-0.748251	 3.163775	 2.532480	-1.280990	 2.832209	 1.085183	-1.362220	 0.124014	-3.944453	-113.442900	 5.085950	 92.921780	 24.937470	 56.235930	 20.162700	 4.900645	-0.253283	-0.073004	 2.167776	-4.516882	-6.197715	-6.580301	 5.266122	 0.000000	 0.000000	 0.000000	 0.000000	 0.000000	 0.000000	 0.000000	 4.454964	-0.175022	-0.706873	 4.963871	 0.739670	-0.341655	 114.220800	-4.422064	-88.333270	-33.803310	 50.319370	-29.459260	-46.344890	-1.630494	-0.639399	-22.060170	-0.177021	-6.133903	-0.840190	 23.570870	 0.886542	 12.476480	 22.018880	-4.948288	-8.465568	 9.798223	-0.317247
 0.022247	 1.266741	 0.008762	-0.223617	 1.842114	-179.906800	-177.579700	 6.724205	-12.778510	 3.436636	-16.890050	 5.044781	-0.894496	 69.457680	 1.047354	 1.331492	 28.938720	-2.729976	 178.671900	 7.890877	 19.236970	-5.908278	-18.757180	-8.232253	-3.745353	 71.603280	 3.641813	-1.292152	 28.419820	 2.925051	-0.737939	 3.247526	 2.544353	-1.321816	 2.846604	 1.089567	-1.305280	 0.291651	-4.035987	-113.444400	 5.070660	 92.936870	 22.997400	 56.207310	 22.576170	 4.850310	-0.250728	-0.073263	 2.356203	-4.593995	-5.602183	-6.580301	 5.266122	 0.000000	 0.000000	 0.000000	 0.000000	 0.000000	 0.000000	 0.000000	 4.220356	-0.147547	-0.745475	 4.813569	 0.837534	-0.394121	 114.213500	-4.371653	-88.366870	-34.453980	 50.950220	-28.469660	-34.222370	-1.267548	-0.331681	-21.608120	-1.873578	 2.136026	-0.779812	 22.044640	 0.863137	 12.380880	 20.527760	-4.595640	-8.456294	 9.074319	-0.271623
 0.022686	 1.266301	 0.010698	-0.177197	 2.040263	 179.289900	-177.376700	 6.555929	-13.591020	 3.480950	-17.095050	 4.623512	-2.142108	 69.512400	 2.308673	 1.331492	 28.938720	-2.729976	 178.837400	 8.072808	 18.364700	-6.026559	-19.104450	-9.098740	-6.390819	 71.658400	 6.348057	-1.293242	 28.434410	 2.935755	-0.717013	 3.337944	 2.347758	-1.329894	 2.747674	 0.887810	-1.258812	 0.509553	-4.125637	-113.445800	 5.055758	 92.951640	 19.288710	 56.257850	 26.452210	 4.774779	-0.246783	-0.073585	 3.287251	-5.248728	-5.384092	-6.580301	 5.266122	 0.000000	 0.000000	 0.000000	 0.000000	 0.000000	 0.000000	 0.000000	 3.991581	-0.120602	-0.783013	 4.667103	 0.932984	-0.445176	 114.206400	-4.322497	-88.399640	-28.992590	 48.420830	-32.653820	-33.801590	-1.253902	-0.322430	-14.080550	-1.459289	 9.666080	-0.722164	 20.555990	 0.842196	 12.297850	 19.072880	-4.257385	-8.446707	 8.368340	-0.227099
 0.022822	 1.266133	 0.012185	-0.122818	 2.228312	 178.523200	-177.202300	 6.322941	-14.366160	 3.500042	-17.183190	 4.216642	-3.291263	 69.521390	 3.497910	 1.331492	 28.938720	-2.729976	 178.998100	 8.109541	 17.530270	-6.077190	-19.252620	-9.893942	-8.857488	 71.618300	 8.870751	-1.294286	 28.448360	 2.945978	-0.688948	 3.422019	 2.264286	-1.228230	 2.630222	 0.797298	-1.267785	 0.727648	-4.211720	-113.447200	 5.041515	 92.965710	 16.367120	 56.373760	 29.639310	 4.715503	-0.243723	-0.073786	 3.847729	-5.814357	-4.989646	-6.580301	 5.266122	 0.000000	 0.000000	 0.000000	 0.000000	 0.000000	 0.000000	 0.000000	 3.773153	-0.094733	-0.818754	 4.527353	 1.024084	-0.493769	 114.199600	-4.275531	-88.430920	-24.984140	 46.691860	-36.492210	-32.114930	-1.198234	-0.286335	-6.656038	-1.091448	 15.517890	-0.668168	 19.134780	 0.823866	 12.227650	 17.683520	-3.939177	-8.437053	 7.694270	-0.184548
